<svg width="64" height="64" viewBox="0 0 64 64" fill="none" xmlns="http://www.w3.org/2000/svg">
<rect width="64" height="64" rx="4" fill="#030712"/>
<path d="M32 12C34.6264 12 37.2272 12.5173 39.6537 13.5224C42.0802 14.5275 44.285 16.0007 46.1421 17.8579C47.9993 19.715 49.4725 21.9198 50.4776 24.3463C51.4827 26.7728 52 29.3736 52 32C52 37.3043 49.8929 42.3914 46.1421 46.1421C42.3914 49.8929 37.3043 52 32 52C29.3736 52 26.7728 51.4827 24.3463 50.4776C21.9198 49.4725 19.715 47.9993 17.8579 46.1421C14.1071 42.3914 12 37.3043 12 32C12 26.6957 14.1071 21.6086 17.8579 17.8579C21.6086 14.1071 26.6957 12 32 12ZM32 16C23.84 16 17.1 22.1 16.12 30H24.26C25.14 26.54 28.28 24 32 24C35.72 24 38.86 26.54 39.74 30H47.88C46.9 22.1 40.16 16 32 16ZM32 48C40.16 48 46.9 41.9 47.88 34H39.74C38.86 37.46 35.72 40 32 40C28.28 40 25.14 37.46 24.26 34H16.12C17.1 41.9 23.84 48 32 48ZM32 28C30.9391 28 29.9217 28.4214 29.1716 29.1716C28.4214 29.9217 28 30.9391 28 32C28 33.0609 28.4214 34.0783 29.1716 34.8284C29.9217 35.5786 30.9391 36 32 36C33.0609 36 34.0783 35.5786 34.8284 34.8284C35.5786 34.0783 36 33.0609 36 32C36 30.9391 35.5786 29.9217 34.8284 29.1716C34.0783 28.4214 33.0609 28 32 28Z" fill="#2DD4BF"/>
</svg>
