<svg width="170" height="24" viewBox="0 0 170 24" fill="none" xmlns="http://www.w3.org/2000/svg">
<path d="M1.14205 21.2727V9.27273H2.80114V10.6875H2.94318C3.04167 10.5057 3.18371 10.2955 3.36932 10.0568C3.55492 9.81818 3.8125 9.60985 4.14205 9.43182C4.47159 9.25 4.9072 9.15909 5.44886 9.15909C6.15341 9.15909 6.7822 9.33712 7.33523 9.69318C7.88826 10.0492 8.32197 10.5625 8.63636 11.233C8.95455 11.9034 9.11364 12.7102 9.11364 13.6534C9.11364 14.5966 8.95644 15.4053 8.64205 16.0795C8.32765 16.75 7.89583 17.267 7.34659 17.6307C6.79735 17.9905 6.17045 18.1705 5.46591 18.1705C4.93561 18.1705 4.50189 18.0814 4.16477 17.9034C3.83144 17.7254 3.57008 17.517 3.38068 17.2784C3.19129 17.0398 3.04545 16.8277 2.94318 16.642H2.84091V21.2727H1.14205ZM2.80682 13.6364C2.80682 14.25 2.89583 14.7879 3.07386 15.25C3.25189 15.7121 3.50947 16.0739 3.84659 16.3352C4.18371 16.5928 4.59659 16.7216 5.08523 16.7216C5.5928 16.7216 6.01705 16.5871 6.35795 16.3182C6.69886 16.0455 6.95644 15.6761 7.13068 15.2102C7.30871 14.7443 7.39773 14.2197 7.39773 13.6364C7.39773 13.0606 7.31061 12.5436 7.13636 12.0852C6.96591 11.6269 6.70833 11.2652 6.36364 11C6.02273 10.7348 5.59659 10.6023 5.08523 10.6023C4.5928 10.6023 4.17614 10.7292 3.83523 10.983C3.49811 11.2367 3.24242 11.5909 3.06818 12.0455C2.89394 12.5 2.80682 13.0303 2.80682 13.6364ZM14.6932 18.1761C13.875 18.1761 13.161 17.9886 12.5511 17.6136C11.9413 17.2386 11.4678 16.714 11.1307 16.0398C10.7936 15.3655 10.625 14.5777 10.625 13.6761C10.625 12.7708 10.7936 11.9792 11.1307 11.3011C11.4678 10.6231 11.9413 10.0966 12.5511 9.72159C13.161 9.34659 13.875 9.15909 14.6932 9.15909C15.5114 9.15909 16.2254 9.34659 16.8352 9.72159C17.4451 10.0966 17.9186 10.6231 18.2557 11.3011C18.5928 11.9792 18.7614 12.7708 18.7614 13.6761C18.7614 14.5777 18.5928 15.3655 18.2557 16.0398C17.9186 16.714 17.4451 17.2386 16.8352 17.6136C16.2254 17.9886 15.5114 18.1761 14.6932 18.1761ZM14.6989 16.75C15.2292 16.75 15.6686 16.6098 16.017 16.3295C16.3655 16.0492 16.6231 15.6761 16.7898 15.2102C16.9602 14.7443 17.0455 14.2311 17.0455 13.6705C17.0455 13.1136 16.9602 12.6023 16.7898 12.1364C16.6231 11.6667 16.3655 11.2898 16.017 11.0057C15.6686 10.7216 15.2292 10.5795 14.6989 10.5795C14.1648 10.5795 13.7216 10.7216 13.3693 11.0057C13.0208 11.2898 12.7614 11.6667 12.5909 12.1364C12.4242 12.6023 12.3409 13.1136 12.3409 13.6705C12.3409 14.2311 12.4242 14.7443 12.5909 15.2102C12.7614 15.6761 13.0208 16.0492 13.3693 16.3295C13.7216 16.6098 14.1648 16.75 14.6989 16.75ZM22.2202 15.0398L22.2088 12.9659H22.5043L25.9815 9.27273H28.0156L24.0497 13.4773H23.7827L22.2202 15.0398ZM20.6577 18V6.36364H22.3565V18H20.6577ZM26.169 18L23.044 13.8523L24.2145 12.6648L28.2543 18H26.169ZM32.9659 18.1761C32.1061 18.1761 31.3655 17.9924 30.7443 17.625C30.1269 17.2538 29.6496 16.733 29.3125 16.0625C28.9792 15.3883 28.8125 14.5985 28.8125 13.6932C28.8125 12.7992 28.9792 12.0114 29.3125 11.3295C29.6496 10.6477 30.1193 10.1155 30.7216 9.73295C31.3277 9.35038 32.036 9.15909 32.8466 9.15909C33.339 9.15909 33.8163 9.24053 34.2784 9.40341C34.7405 9.56629 35.1553 9.82197 35.5227 10.1705C35.8902 10.5189 36.1799 10.9716 36.392 11.5284C36.6042 12.0814 36.7102 12.7538 36.7102 13.5455V14.1477H29.7727V12.875H35.0455C35.0455 12.428 34.9545 12.0322 34.7727 11.6875C34.5909 11.339 34.3352 11.0644 34.0057 10.8636C33.6799 10.6629 33.2973 10.5625 32.858 10.5625C32.3807 10.5625 31.964 10.6799 31.608 10.9148C31.2557 11.1458 30.983 11.4489 30.7898 11.8239C30.6004 12.1951 30.5057 12.5985 30.5057 13.0341V14.0284C30.5057 14.6117 30.608 15.108 30.8125 15.517C31.0208 15.9261 31.3106 16.2386 31.6818 16.4545C32.053 16.6667 32.4867 16.7727 32.983 16.7727C33.3049 16.7727 33.5985 16.7273 33.8636 16.6364C34.1288 16.5417 34.358 16.4015 34.5511 16.2159C34.7443 16.0303 34.892 15.8011 34.9943 15.5284L36.6023 15.8182C36.4735 16.2917 36.2424 16.7064 35.9091 17.0625C35.5795 17.4148 35.1648 17.6894 34.6648 17.8864C34.1686 18.0795 33.6023 18.1761 32.9659 18.1761ZM38.5952 21.2727V9.27273H40.2543V10.6875H40.3963C40.4948 10.5057 40.6368 10.2955 40.8224 10.0568C41.008 9.81818 41.2656 9.60985 41.5952 9.43182C41.9247 9.25 42.3603 9.15909 42.902 9.15909C43.6065 9.15909 44.2353 9.33712 44.7884 9.69318C45.3414 10.0492 45.7751 10.5625 46.0895 11.233C46.4077 11.9034 46.5668 12.7102 46.5668 13.6534C46.5668 14.5966 46.4096 15.4053 46.0952 16.0795C45.7808 16.75 45.349 17.267 44.7997 17.6307C44.2505 17.9905 43.6236 18.1705 42.919 18.1705C42.3887 18.1705 41.955 18.0814 41.6179 17.9034C41.2846 17.7254 41.0232 17.517 40.8338 17.2784C40.6444 17.0398 40.4986 16.8277 40.3963 16.642H40.294V21.2727H38.5952ZM40.2599 13.6364C40.2599 14.25 40.349 14.7879 40.527 15.25C40.705 15.7121 40.9626 16.0739 41.2997 16.3352C41.6368 16.5928 42.0497 16.7216 42.5384 16.7216C43.0459 16.7216 43.4702 16.5871 43.8111 16.3182C44.152 16.0455 44.4096 15.6761 44.5838 15.2102C44.7618 14.7443 44.8509 14.2197 44.8509 13.6364C44.8509 13.0606 44.7637 12.5436 44.5895 12.0852C44.419 11.6269 44.1615 11.2652 43.8168 11C43.4759 10.7348 43.0497 10.6023 42.5384 10.6023C42.0459 10.6023 41.6293 10.7292 41.2884 10.983C40.9512 11.2367 40.6955 11.5909 40.5213 12.0455C40.3471 12.5 40.2599 13.0303 40.2599 13.6364ZM52.1463 18.1761C51.3281 18.1761 50.6141 17.9886 50.0043 17.6136C49.3944 17.2386 48.9209 16.714 48.5838 16.0398C48.2467 15.3655 48.0781 14.5777 48.0781 13.6761C48.0781 12.7708 48.2467 11.9792 48.5838 11.3011C48.9209 10.6231 49.3944 10.0966 50.0043 9.72159C50.6141 9.34659 51.3281 9.15909 52.1463 9.15909C52.9645 9.15909 53.6785 9.34659 54.2884 9.72159C54.8982 10.0966 55.3717 10.6231 55.7088 11.3011C56.0459 11.9792 56.2145 12.7708 56.2145 13.6761C56.2145 14.5777 56.0459 15.3655 55.7088 16.0398C55.3717 16.714 54.8982 17.2386 54.2884 17.6136C53.6785 17.9886 52.9645 18.1761 52.1463 18.1761ZM52.152 16.75C52.6823 16.75 53.1217 16.6098 53.4702 16.3295C53.8187 16.0492 54.0762 15.6761 54.2429 15.2102C54.4134 14.7443 54.4986 14.2311 54.4986 13.6705C54.4986 13.1136 54.4134 12.6023 54.2429 12.1364C54.0762 11.6667 53.8187 11.2898 53.4702 11.0057C53.1217 10.7216 52.6823 10.5795 52.152 10.5795C51.6179 10.5795 51.1747 10.7216 50.8224 11.0057C50.474 11.2898 50.2145 11.6667 50.044 12.1364C49.8774 12.6023 49.794 13.1136 49.794 13.6705C49.794 14.2311 49.8774 14.7443 50.044 15.2102C50.2145 15.6761 50.474 16.0492 50.8224 16.3295C51.1747 16.6098 51.6179 16.75 52.152 16.75ZM61.7869 18.1761C60.9422 18.1761 60.215 17.9848 59.6051 17.6023C58.9991 17.2159 58.5331 16.6837 58.2074 16.0057C57.8816 15.3277 57.7188 14.5511 57.7188 13.6761C57.7188 12.7898 57.8854 12.0076 58.2188 11.3295C58.5521 10.6477 59.0218 10.1155 59.6278 9.73295C60.2339 9.35038 60.9479 9.15909 61.7699 9.15909C62.4328 9.15909 63.0237 9.2822 63.5426 9.52841C64.0616 9.77083 64.4801 10.1117 64.7983 10.5511C65.1203 10.9905 65.3116 11.5038 65.3722 12.0909H63.7188C63.6278 11.6818 63.4195 11.3295 63.0938 11.0341C62.7718 10.7386 62.34 10.5909 61.7983 10.5909C61.3248 10.5909 60.91 10.7159 60.554 10.9659C60.2017 11.2121 59.9271 11.5644 59.7301 12.0227C59.5331 12.4773 59.4347 13.0152 59.4347 13.6364C59.4347 14.2727 59.5313 14.822 59.7244 15.2841C59.9176 15.7462 60.1903 16.1042 60.5426 16.358C60.8987 16.6117 61.3172 16.7386 61.7983 16.7386C62.1203 16.7386 62.4119 16.6799 62.6733 16.5625C62.9384 16.4413 63.16 16.2689 63.3381 16.0455C63.5199 15.822 63.6468 15.553 63.7188 15.2386H65.3722C65.3116 15.803 65.1278 16.3068 64.821 16.75C64.5142 17.1932 64.1032 17.5417 63.5881 17.7955C63.0767 18.0492 62.4763 18.1761 61.7869 18.1761ZM68.7514 15.0398L68.7401 12.9659H69.0355L72.5128 9.27273H74.5469L70.581 13.4773H70.3139L68.7514 15.0398ZM67.1889 18V6.36364H68.8878V18H67.1889ZM72.7003 18L69.5753 13.8523L70.7457 12.6648L74.7855 18H72.7003ZM79.4972 18.1761C78.6373 18.1761 77.8968 17.9924 77.2756 17.625C76.6581 17.2538 76.1809 16.733 75.8438 16.0625C75.5104 15.3883 75.3438 14.5985 75.3438 13.6932C75.3438 12.7992 75.5104 12.0114 75.8438 11.3295C76.1809 10.6477 76.6506 10.1155 77.2528 9.73295C77.8589 9.35038 78.5672 9.15909 79.3778 9.15909C79.8703 9.15909 80.3475 9.24053 80.8097 9.40341C81.2718 9.56629 81.6866 9.82197 82.054 10.1705C82.4214 10.5189 82.7112 10.9716 82.9233 11.5284C83.1354 12.0814 83.2415 12.7538 83.2415 13.5455V14.1477H76.304V12.875H81.5767C81.5767 12.428 81.4858 12.0322 81.304 11.6875C81.1222 11.339 80.8665 11.0644 80.5369 10.8636C80.2112 10.6629 79.8286 10.5625 79.3892 10.5625C78.9119 10.5625 78.4953 10.6799 78.1392 10.9148C77.7869 11.1458 77.5142 11.4489 77.321 11.8239C77.1316 12.1951 77.0369 12.5985 77.0369 13.0341V14.0284C77.0369 14.6117 77.1392 15.108 77.3438 15.517C77.5521 15.9261 77.8419 16.2386 78.2131 16.4545C78.5843 16.6667 79.018 16.7727 79.5142 16.7727C79.8362 16.7727 80.1297 16.7273 80.3949 16.6364C80.66 16.5417 80.8892 16.4015 81.0824 16.2159C81.2756 16.0303 81.4233 15.8011 81.5256 15.5284L83.1335 15.8182C83.0047 16.2917 82.7737 16.7064 82.4403 17.0625C82.1108 17.4148 81.696 17.6894 81.196 17.8864C80.6998 18.0795 80.1335 18.1761 79.4972 18.1761ZM89.2003 9.27273V10.6364H84.4332V9.27273H89.2003ZM85.7116 7.18182H87.4105V15.4375C87.4105 15.767 87.4598 16.0152 87.5582 16.1818C87.6567 16.3447 87.7836 16.4564 87.9389 16.517C88.098 16.5739 88.2704 16.6023 88.456 16.6023C88.5923 16.6023 88.7116 16.5928 88.8139 16.5739C88.9162 16.5549 88.9957 16.5398 89.0526 16.5284L89.3594 17.9318C89.2609 17.9697 89.1207 18.0076 88.9389 18.0455C88.7571 18.0871 88.5298 18.1098 88.2571 18.1136C87.8101 18.1212 87.3935 18.0417 87.0071 17.875C86.6207 17.7083 86.3082 17.4508 86.0696 17.1023C85.831 16.7538 85.7116 16.3163 85.7116 15.7898V7.18182Z" fill="#F3F4F6"/>
<path d="M94.1193 18.142C93.4564 18.142 92.8561 17.9716 92.3182 17.6307C91.7841 17.286 91.3598 16.7803 91.0455 16.1136C90.7348 15.4432 90.5795 14.6212 90.5795 13.6477C90.5795 12.6477 90.7405 11.8163 91.0625 11.1534C91.3845 10.4867 91.8125 9.98864 92.3466 9.65909C92.8845 9.32576 93.4735 9.15909 94.1136 9.15909C94.6023 9.15909 95.0095 9.24242 95.3352 9.40909C95.6648 9.57197 95.9299 9.77652 96.1307 10.0227C96.3352 10.2652 96.4905 10.5038 96.5966 10.7386H96.6705V6.36364H99.0852V18H96.6989V16.6023H96.5966C96.483 16.8447 96.322 17.0852 96.1136 17.3239C95.9091 17.5587 95.642 17.7538 95.3125 17.9091C94.9867 18.0644 94.589 18.142 94.1193 18.142ZM94.8864 16.2159C95.2765 16.2159 95.6061 16.1098 95.875 15.8977C96.1477 15.6818 96.3561 15.3807 96.5 14.9943C96.6477 14.608 96.7216 14.1553 96.7216 13.6364C96.7216 13.1174 96.6496 12.6667 96.5057 12.2841C96.3617 11.9015 96.1534 11.6061 95.8807 11.3977C95.608 11.1894 95.2765 11.0852 94.8864 11.0852C94.4886 11.0852 94.1534 11.1932 93.8807 11.4091C93.608 11.625 93.4015 11.9242 93.2614 12.3068C93.1212 12.6894 93.0511 13.1326 93.0511 13.6364C93.0511 14.1439 93.1212 14.5928 93.2614 14.983C93.4053 15.3693 93.6117 15.6723 93.8807 15.892C94.1534 16.108 94.4886 16.2159 94.8864 16.2159ZM101.121 18V6.36364H103.541V10.7386H103.615C103.721 10.5038 103.875 10.2652 104.075 10.0227C104.28 9.77652 104.545 9.57197 104.871 9.40909C105.2 9.24242 105.609 9.15909 106.098 9.15909C106.734 9.15909 107.321 9.32576 107.859 9.65909C108.397 9.98864 108.827 10.4867 109.149 11.1534C109.471 11.8163 109.632 12.6477 109.632 13.6477C109.632 14.6212 109.475 15.4432 109.161 16.1136C108.85 16.7803 108.426 17.286 107.888 17.6307C107.354 17.9716 106.755 18.142 106.092 18.142C105.623 18.142 105.223 18.0644 104.893 17.9091C104.568 17.7538 104.301 17.5587 104.092 17.3239C103.884 17.0852 103.725 16.8447 103.615 16.6023H103.507V18H101.121ZM103.49 13.6364C103.49 14.1553 103.562 14.608 103.706 14.9943C103.85 15.3807 104.058 15.6818 104.331 15.8977C104.604 16.1098 104.935 16.2159 105.325 16.2159C105.719 16.2159 106.053 16.108 106.325 15.892C106.598 15.6723 106.804 15.3693 106.945 14.983C107.089 14.5928 107.161 14.1439 107.161 13.6364C107.161 13.1326 107.09 12.6894 106.95 12.3068C106.81 11.9242 106.604 11.625 106.331 11.4091C106.058 11.1932 105.723 11.0852 105.325 11.0852C104.931 11.0852 104.598 11.1894 104.325 11.3977C104.056 11.6061 103.85 11.9015 103.706 12.2841C103.562 12.6667 103.49 13.1174 103.49 13.6364Z" fill="#2DD4BF"/>
<rect x="114" width="56" height="24" rx="4" fill="#2DD4BF"/>
<path d="M121.682 18.1932C121.129 18.1932 120.629 18.0909 120.182 17.8864C119.735 17.678 119.381 17.3769 119.119 16.983C118.862 16.589 118.733 16.1061 118.733 15.5341C118.733 15.0417 118.828 14.6364 119.017 14.3182C119.206 14 119.462 13.7481 119.784 13.5625C120.106 13.3769 120.466 13.2367 120.864 13.142C121.261 13.0473 121.667 12.9754 122.08 12.9261C122.602 12.8655 123.027 12.8163 123.352 12.7784C123.678 12.7367 123.915 12.6705 124.062 12.5795C124.21 12.4886 124.284 12.3409 124.284 12.1364V12.0966C124.284 11.6004 124.144 11.2159 123.864 10.9432C123.587 10.6705 123.174 10.5341 122.625 10.5341C122.053 10.5341 121.602 10.661 121.273 10.9148C120.947 11.1648 120.722 11.4432 120.597 11.75L119 11.3864C119.189 10.8561 119.466 10.428 119.83 10.1023C120.197 9.77273 120.619 9.53409 121.097 9.38636C121.574 9.23485 122.076 9.15909 122.602 9.15909C122.951 9.15909 123.32 9.20076 123.71 9.28409C124.104 9.36364 124.472 9.51136 124.812 9.72727C125.157 9.94318 125.439 10.2519 125.659 10.6534C125.879 11.0511 125.989 11.5682 125.989 12.2045V18H124.33V16.8068H124.261C124.152 17.0265 123.987 17.2424 123.767 17.4545C123.547 17.6667 123.265 17.8428 122.92 17.983C122.576 18.1231 122.163 18.1932 121.682 18.1932ZM122.051 16.8295C122.521 16.8295 122.922 16.7367 123.256 16.5511C123.593 16.3655 123.848 16.1231 124.023 15.8239C124.201 15.5208 124.29 15.197 124.29 14.8523V13.7273C124.229 13.7879 124.112 13.8447 123.938 13.8977C123.767 13.947 123.572 13.9905 123.352 14.0284C123.133 14.0625 122.919 14.0947 122.71 14.125C122.502 14.1515 122.328 14.1742 122.188 14.1932C121.858 14.2348 121.557 14.3049 121.284 14.4034C121.015 14.5019 120.799 14.6439 120.636 14.8295C120.477 15.0114 120.398 15.2538 120.398 15.5568C120.398 15.9773 120.553 16.2955 120.864 16.5114C121.174 16.7235 121.57 16.8295 122.051 16.8295ZM131.518 18.1705C130.814 18.1705 130.185 17.9905 129.632 17.6307C129.083 17.267 128.651 16.75 128.337 16.0795C128.026 15.4053 127.871 14.5966 127.871 13.6534C127.871 12.7102 128.028 11.9034 128.342 11.233C128.661 10.5625 129.096 10.0492 129.649 9.69318C130.202 9.33712 130.829 9.15909 131.53 9.15909C132.071 9.15909 132.507 9.25 132.837 9.43182C133.17 9.60985 133.428 9.81818 133.609 10.0568C133.795 10.2955 133.939 10.5057 134.041 10.6875H134.143V6.36364H135.842V18H134.183V16.642H134.041C133.939 16.8277 133.791 17.0398 133.598 17.2784C133.409 17.517 133.147 17.7254 132.814 17.9034C132.481 18.0814 132.049 18.1705 131.518 18.1705ZM131.893 16.7216C132.382 16.7216 132.795 16.5928 133.132 16.3352C133.473 16.0739 133.731 15.7121 133.905 15.25C134.083 14.7879 134.172 14.25 134.172 13.6364C134.172 13.0303 134.085 12.5 133.911 12.0455C133.736 11.5909 133.481 11.2367 133.143 10.983C132.806 10.7292 132.39 10.6023 131.893 10.6023C131.382 10.6023 130.956 10.7348 130.615 11C130.274 11.2652 130.017 11.6269 129.842 12.0852C129.672 12.5436 129.587 13.0606 129.587 13.6364C129.587 14.2197 129.674 14.7443 129.848 15.2102C130.022 15.6761 130.28 16.0455 130.621 16.3182C130.965 16.5871 131.39 16.7216 131.893 16.7216ZM138.267 18V9.27273H139.898V10.6932H140.006C140.188 10.2121 140.485 9.83712 140.898 9.56818C141.311 9.29545 141.805 9.15909 142.381 9.15909C142.964 9.15909 143.453 9.29545 143.847 9.56818C144.244 9.84091 144.538 10.2159 144.727 10.6932H144.818C145.027 10.2273 145.358 9.85606 145.812 9.57955C146.267 9.29924 146.809 9.15909 147.438 9.15909C148.229 9.15909 148.875 9.4072 149.375 9.90341C149.879 10.3996 150.131 11.1477 150.131 12.1477V18H148.432V12.3068C148.432 11.7159 148.271 11.2879 147.949 11.0227C147.627 10.7576 147.242 10.625 146.795 10.625C146.242 10.625 145.812 10.7955 145.506 11.1364C145.199 11.4735 145.045 11.9072 145.045 12.4375V18H143.352V12.1989C143.352 11.7254 143.205 11.3447 142.909 11.0568C142.614 10.7689 142.229 10.625 141.756 10.625C141.434 10.625 141.136 10.7102 140.864 10.8807C140.595 11.0473 140.377 11.2803 140.21 11.5795C140.047 11.8788 139.966 12.2254 139.966 12.6193V18H138.267ZM152.408 18V9.27273H154.107V18H152.408ZM153.266 7.92614C152.97 7.92614 152.716 7.82765 152.504 7.63068C152.296 7.42992 152.192 7.19129 152.192 6.91477C152.192 6.63447 152.296 6.39583 152.504 6.19886C152.716 5.99811 152.97 5.89773 153.266 5.89773C153.561 5.89773 153.813 5.99811 154.021 6.19886C154.233 6.39583 154.339 6.63447 154.339 6.91477C154.339 7.19129 154.233 7.42992 154.021 7.63068C153.813 7.82765 153.561 7.92614 153.266 7.92614ZM158.091 12.8182V18H156.392V9.27273H158.023V10.6932H158.131C158.331 10.2311 158.646 9.85985 159.074 9.57955C159.506 9.29924 160.049 9.15909 160.705 9.15909C161.299 9.15909 161.82 9.28409 162.267 9.53409C162.714 9.7803 163.061 10.1477 163.307 10.6364C163.553 11.125 163.676 11.7292 163.676 12.4489V18H161.977V12.6534C161.977 12.0208 161.813 11.5265 161.483 11.1705C161.153 10.8106 160.701 10.6307 160.125 10.6307C159.731 10.6307 159.381 10.7159 159.074 10.8864C158.771 11.0568 158.53 11.3068 158.352 11.6364C158.178 11.9621 158.091 12.3561 158.091 12.8182Z" fill="#F3F4F6"/>
</svg>
