<svg width="111" height="19" viewBox="0 0 111 19" fill="none" xmlns="http://www.w3.org/2000/svg">
<path d="M1.14205 18.2727V6.27273H2.80114V7.6875H2.94318C3.04167 7.50568 3.18371 7.29545 3.36932 7.05682C3.55492 6.81818 3.8125 6.60985 4.14205 6.43182C4.47159 6.25 4.9072 6.15909 5.44886 6.15909C6.15341 6.15909 6.7822 6.33712 7.33523 6.69318C7.88826 7.04924 8.32197 7.5625 8.63636 8.23295C8.95455 8.90341 9.11364 9.71023 9.11364 10.6534C9.11364 11.5966 8.95644 12.4053 8.64205 13.0795C8.32765 13.75 7.89583 14.267 7.34659 14.6307C6.79735 14.9905 6.17045 15.1705 5.46591 15.1705C4.93561 15.1705 4.50189 15.0814 4.16477 14.9034C3.83144 14.7254 3.57008 14.517 3.38068 14.2784C3.19129 14.0398 3.04545 13.8277 2.94318 13.642H2.84091V18.2727H1.14205ZM2.80682 10.6364C2.80682 11.25 2.89583 11.7879 3.07386 12.25C3.25189 12.7121 3.50947 13.0739 3.84659 13.3352C4.18371 13.5928 4.59659 13.7216 5.08523 13.7216C5.5928 13.7216 6.01705 13.5871 6.35795 13.3182C6.69886 13.0455 6.95644 12.6761 7.13068 12.2102C7.30871 11.7443 7.39773 11.2197 7.39773 10.6364C7.39773 10.0606 7.31061 9.54356 7.13636 9.08523C6.96591 8.62689 6.70833 8.26515 6.36364 8C6.02273 7.73485 5.59659 7.60227 5.08523 7.60227C4.5928 7.60227 4.17614 7.72917 3.83523 7.98295C3.49811 8.23674 3.24242 8.59091 3.06818 9.04545C2.89394 9.5 2.80682 10.0303 2.80682 10.6364ZM14.6932 15.1761C13.875 15.1761 13.161 14.9886 12.5511 14.6136C11.9413 14.2386 11.4678 13.714 11.1307 13.0398C10.7936 12.3655 10.625 11.5777 10.625 10.6761C10.625 9.77083 10.7936 8.97917 11.1307 8.30114C11.4678 7.62311 11.9413 7.09659 12.5511 6.72159C13.161 6.34659 13.875 6.15909 14.6932 6.15909C15.5114 6.15909 16.2254 6.34659 16.8352 6.72159C17.4451 7.09659 17.9186 7.62311 18.2557 8.30114C18.5928 8.97917 18.7614 9.77083 18.7614 10.6761C18.7614 11.5777 18.5928 12.3655 18.2557 13.0398C17.9186 13.714 17.4451 14.2386 16.8352 14.6136C16.2254 14.9886 15.5114 15.1761 14.6932 15.1761ZM14.6989 13.75C15.2292 13.75 15.6686 13.6098 16.017 13.3295C16.3655 13.0492 16.6231 12.6761 16.7898 12.2102C16.9602 11.7443 17.0455 11.2311 17.0455 10.6705C17.0455 10.1136 16.9602 9.60227 16.7898 9.13636C16.6231 8.66667 16.3655 8.28977 16.017 8.00568C15.6686 7.72159 15.2292 7.57955 14.6989 7.57955C14.1648 7.57955 13.7216 7.72159 13.3693 8.00568C13.0208 8.28977 12.7614 8.66667 12.5909 9.13636C12.4242 9.60227 12.3409 10.1136 12.3409 10.6705C12.3409 11.2311 12.4242 11.7443 12.5909 12.2102C12.7614 12.6761 13.0208 13.0492 13.3693 13.3295C13.7216 13.6098 14.1648 13.75 14.6989 13.75ZM22.2202 12.0398L22.2088 9.96591H22.5043L25.9815 6.27273H28.0156L24.0497 10.4773H23.7827L22.2202 12.0398ZM20.6577 15V3.36364H22.3565V15H20.6577ZM26.169 15L23.044 10.8523L24.2145 9.66477L28.2543 15H26.169ZM32.9659 15.1761C32.1061 15.1761 31.3655 14.9924 30.7443 14.625C30.1269 14.2538 29.6496 13.733 29.3125 13.0625C28.9792 12.3883 28.8125 11.5985 28.8125 10.6932C28.8125 9.79924 28.9792 9.01136 29.3125 8.32955C29.6496 7.64773 30.1193 7.11553 30.7216 6.73295C31.3277 6.35038 32.036 6.15909 32.8466 6.15909C33.339 6.15909 33.8163 6.24053 34.2784 6.40341C34.7405 6.56629 35.1553 6.82197 35.5227 7.17045C35.8902 7.51894 36.1799 7.97159 36.392 8.52841C36.6042 9.08144 36.7102 9.75379 36.7102 10.5455V11.1477H29.7727V9.875H35.0455C35.0455 9.42803 34.9545 9.0322 34.7727 8.6875C34.5909 8.33902 34.3352 8.06439 34.0057 7.86364C33.6799 7.66288 33.2973 7.5625 32.858 7.5625C32.3807 7.5625 31.964 7.67992 31.608 7.91477C31.2557 8.14583 30.983 8.44886 30.7898 8.82386C30.6004 9.19508 30.5057 9.59848 30.5057 10.0341V11.0284C30.5057 11.6117 30.608 12.108 30.8125 12.517C31.0208 12.9261 31.3106 13.2386 31.6818 13.4545C32.053 13.6667 32.4867 13.7727 32.983 13.7727C33.3049 13.7727 33.5985 13.7273 33.8636 13.6364C34.1288 13.5417 34.358 13.4015 34.5511 13.2159C34.7443 13.0303 34.892 12.8011 34.9943 12.5284L36.6023 12.8182C36.4735 13.2917 36.2424 13.7064 35.9091 14.0625C35.5795 14.4148 35.1648 14.6894 34.6648 14.8864C34.1686 15.0795 33.6023 15.1761 32.9659 15.1761ZM38.5952 18.2727V6.27273H40.2543V7.6875H40.3963C40.4948 7.50568 40.6368 7.29545 40.8224 7.05682C41.008 6.81818 41.2656 6.60985 41.5952 6.43182C41.9247 6.25 42.3603 6.15909 42.902 6.15909C43.6065 6.15909 44.2353 6.33712 44.7884 6.69318C45.3414 7.04924 45.7751 7.5625 46.0895 8.23295C46.4077 8.90341 46.5668 9.71023 46.5668 10.6534C46.5668 11.5966 46.4096 12.4053 46.0952 13.0795C45.7808 13.75 45.349 14.267 44.7997 14.6307C44.2505 14.9905 43.6236 15.1705 42.919 15.1705C42.3887 15.1705 41.955 15.0814 41.6179 14.9034C41.2846 14.7254 41.0232 14.517 40.8338 14.2784C40.6444 14.0398 40.4986 13.8277 40.3963 13.642H40.294V18.2727H38.5952ZM40.2599 10.6364C40.2599 11.25 40.349 11.7879 40.527 12.25C40.705 12.7121 40.9626 13.0739 41.2997 13.3352C41.6368 13.5928 42.0497 13.7216 42.5384 13.7216C43.0459 13.7216 43.4702 13.5871 43.8111 13.3182C44.152 13.0455 44.4096 12.6761 44.5838 12.2102C44.7618 11.7443 44.8509 11.2197 44.8509 10.6364C44.8509 10.0606 44.7637 9.54356 44.5895 9.08523C44.419 8.62689 44.1615 8.26515 43.8168 8C43.4759 7.73485 43.0497 7.60227 42.5384 7.60227C42.0459 7.60227 41.6293 7.72917 41.2884 7.98295C40.9512 8.23674 40.6955 8.59091 40.5213 9.04545C40.3471 9.5 40.2599 10.0303 40.2599 10.6364ZM52.1463 15.1761C51.3281 15.1761 50.6141 14.9886 50.0043 14.6136C49.3944 14.2386 48.9209 13.714 48.5838 13.0398C48.2467 12.3655 48.0781 11.5777 48.0781 10.6761C48.0781 9.77083 48.2467 8.97917 48.5838 8.30114C48.9209 7.62311 49.3944 7.09659 50.0043 6.72159C50.6141 6.34659 51.3281 6.15909 52.1463 6.15909C52.9645 6.15909 53.6785 6.34659 54.2884 6.72159C54.8982 7.09659 55.3717 7.62311 55.7088 8.30114C56.0459 8.97917 56.2145 9.77083 56.2145 10.6761C56.2145 11.5777 56.0459 12.3655 55.7088 13.0398C55.3717 13.714 54.8982 14.2386 54.2884 14.6136C53.6785 14.9886 52.9645 15.1761 52.1463 15.1761ZM52.152 13.75C52.6823 13.75 53.1217 13.6098 53.4702 13.3295C53.8187 13.0492 54.0762 12.6761 54.2429 12.2102C54.4134 11.7443 54.4986 11.2311 54.4986 10.6705C54.4986 10.1136 54.4134 9.60227 54.2429 9.13636C54.0762 8.66667 53.8187 8.28977 53.4702 8.00568C53.1217 7.72159 52.6823 7.57955 52.152 7.57955C51.6179 7.57955 51.1747 7.72159 50.8224 8.00568C50.474 8.28977 50.2145 8.66667 50.044 9.13636C49.8774 9.60227 49.794 10.1136 49.794 10.6705C49.794 11.2311 49.8774 11.7443 50.044 12.2102C50.2145 12.6761 50.474 13.0492 50.8224 13.3295C51.1747 13.6098 51.6179 13.75 52.152 13.75ZM61.7869 15.1761C60.9422 15.1761 60.215 14.9848 59.6051 14.6023C58.9991 14.2159 58.5331 13.6837 58.2074 13.0057C57.8816 12.3277 57.7188 11.5511 57.7188 10.6761C57.7188 9.78977 57.8854 9.00758 58.2188 8.32955C58.5521 7.64773 59.0218 7.11553 59.6278 6.73295C60.2339 6.35038 60.9479 6.15909 61.7699 6.15909C62.4328 6.15909 63.0237 6.2822 63.5426 6.52841C64.0616 6.77083 64.4801 7.11174 64.7983 7.55114C65.1203 7.99053 65.3116 8.50379 65.3722 9.09091H63.7188C63.6278 8.68182 63.4195 8.32955 63.0938 8.03409C62.7718 7.73864 62.34 7.59091 61.7983 7.59091C61.3248 7.59091 60.91 7.71591 60.554 7.96591C60.2017 8.21212 59.9271 8.56439 59.7301 9.02273C59.5331 9.47727 59.4347 10.0152 59.4347 10.6364C59.4347 11.2727 59.5313 11.822 59.7244 12.2841C59.9176 12.7462 60.1903 13.1042 60.5426 13.358C60.8987 13.6117 61.3172 13.7386 61.7983 13.7386C62.1203 13.7386 62.4119 13.6799 62.6733 13.5625C62.9384 13.4413 63.16 13.2689 63.3381 13.0455C63.5199 12.822 63.6468 12.553 63.7188 12.2386H65.3722C65.3116 12.803 65.1278 13.3068 64.821 13.75C64.5142 14.1932 64.1032 14.5417 63.5881 14.7955C63.0767 15.0492 62.4763 15.1761 61.7869 15.1761ZM68.7514 12.0398L68.7401 9.96591H69.0355L72.5128 6.27273H74.5469L70.581 10.4773H70.3139L68.7514 12.0398ZM67.1889 15V3.36364H68.8878V15H67.1889ZM72.7003 15L69.5753 10.8523L70.7457 9.66477L74.7855 15H72.7003ZM79.4972 15.1761C78.6373 15.1761 77.8968 14.9924 77.2756 14.625C76.6581 14.2538 76.1809 13.733 75.8438 13.0625C75.5104 12.3883 75.3438 11.5985 75.3438 10.6932C75.3438 9.79924 75.5104 9.01136 75.8438 8.32955C76.1809 7.64773 76.6506 7.11553 77.2528 6.73295C77.8589 6.35038 78.5672 6.15909 79.3778 6.15909C79.8703 6.15909 80.3475 6.24053 80.8097 6.40341C81.2718 6.56629 81.6866 6.82197 82.054 7.17045C82.4214 7.51894 82.7112 7.97159 82.9233 8.52841C83.1354 9.08144 83.2415 9.75379 83.2415 10.5455V11.1477H76.304V9.875H81.5767C81.5767 9.42803 81.4858 9.0322 81.304 8.6875C81.1222 8.33902 80.8665 8.06439 80.5369 7.86364C80.2112 7.66288 79.8286 7.5625 79.3892 7.5625C78.9119 7.5625 78.4953 7.67992 78.1392 7.91477C77.7869 8.14583 77.5142 8.44886 77.321 8.82386C77.1316 9.19508 77.0369 9.59848 77.0369 10.0341V11.0284C77.0369 11.6117 77.1392 12.108 77.3438 12.517C77.5521 12.9261 77.8419 13.2386 78.2131 13.4545C78.5843 13.6667 79.018 13.7727 79.5142 13.7727C79.8362 13.7727 80.1297 13.7273 80.3949 13.6364C80.66 13.5417 80.8892 13.4015 81.0824 13.2159C81.2756 13.0303 81.4233 12.8011 81.5256 12.5284L83.1335 12.8182C83.0047 13.2917 82.7737 13.7064 82.4403 14.0625C82.1108 14.4148 81.696 14.6894 81.196 14.8864C80.6998 15.0795 80.1335 15.1761 79.4972 15.1761ZM89.2003 6.27273V7.63636H84.4332V6.27273H89.2003ZM85.7116 4.18182H87.4105V12.4375C87.4105 12.767 87.4598 13.0152 87.5582 13.1818C87.6567 13.3447 87.7836 13.4564 87.9389 13.517C88.098 13.5739 88.2704 13.6023 88.456 13.6023C88.5923 13.6023 88.7116 13.5928 88.8139 13.5739C88.9162 13.5549 88.9957 13.5398 89.0526 13.5284L89.3594 14.9318C89.2609 14.9697 89.1207 15.0076 88.9389 15.0455C88.7571 15.0871 88.5298 15.1098 88.2571 15.1136C87.8101 15.1212 87.3935 15.0417 87.0071 14.875C86.6207 14.7083 86.3082 14.4508 86.0696 14.1023C85.831 13.7538 85.7116 13.3163 85.7116 12.7898V4.18182Z" fill="#F3F4F6"/>
<path d="M94.1193 15.142C93.4564 15.142 92.8561 14.9716 92.3182 14.6307C91.7841 14.286 91.3598 13.7803 91.0455 13.1136C90.7348 12.4432 90.5795 11.6212 90.5795 10.6477C90.5795 9.64773 90.7405 8.81629 91.0625 8.15341C91.3845 7.48674 91.8125 6.98864 92.3466 6.65909C92.8845 6.32576 93.4735 6.15909 94.1136 6.15909C94.6023 6.15909 95.0095 6.24242 95.3352 6.40909C95.6648 6.57197 95.9299 6.77652 96.1307 7.02273C96.3352 7.26515 96.4905 7.50379 96.5966 7.73864H96.6705V3.36364H99.0852V15H96.6989V13.6023H96.5966C96.483 13.8447 96.322 14.0852 96.1136 14.3239C95.9091 14.5587 95.642 14.7538 95.3125 14.9091C94.9867 15.0644 94.589 15.142 94.1193 15.142ZM94.8864 13.2159C95.2765 13.2159 95.6061 13.1098 95.875 12.8977C96.1477 12.6818 96.3561 12.3807 96.5 11.9943C96.6477 11.608 96.7216 11.1553 96.7216 10.6364C96.7216 10.1174 96.6496 9.66667 96.5057 9.28409C96.3617 8.90151 96.1534 8.60606 95.8807 8.39773C95.608 8.18939 95.2765 8.08523 94.8864 8.08523C94.4886 8.08523 94.1534 8.19318 93.8807 8.40909C93.608 8.625 93.4015 8.92424 93.2614 9.30682C93.1212 9.68939 93.0511 10.1326 93.0511 10.6364C93.0511 11.1439 93.1212 11.5928 93.2614 11.983C93.4053 12.3693 93.6117 12.6723 93.8807 12.892C94.1534 13.108 94.4886 13.2159 94.8864 13.2159ZM101.121 15V3.36364H103.541V7.73864H103.615C103.721 7.50379 103.875 7.26515 104.075 7.02273C104.28 6.77652 104.545 6.57197 104.871 6.40909C105.2 6.24242 105.609 6.15909 106.098 6.15909C106.734 6.15909 107.321 6.32576 107.859 6.65909C108.397 6.98864 108.827 7.48674 109.149 8.15341C109.471 8.81629 109.632 9.64773 109.632 10.6477C109.632 11.6212 109.475 12.4432 109.161 13.1136C108.85 13.7803 108.426 14.286 107.888 14.6307C107.354 14.9716 106.755 15.142 106.092 15.142C105.623 15.142 105.223 15.0644 104.893 14.9091C104.568 14.7538 104.301 14.5587 104.092 14.3239C103.884 14.0852 103.725 13.8447 103.615 13.6023H103.507V15H101.121ZM103.49 10.6364C103.49 11.1553 103.562 11.608 103.706 11.9943C103.85 12.3807 104.058 12.6818 104.331 12.8977C104.604 13.1098 104.935 13.2159 105.325 13.2159C105.719 13.2159 106.053 13.108 106.325 12.892C106.598 12.6723 106.804 12.3693 106.945 11.983C107.089 11.5928 107.161 11.1439 107.161 10.6364C107.161 10.1326 107.09 9.68939 106.95 9.30682C106.81 8.92424 106.604 8.625 106.331 8.40909C106.058 8.19318 105.723 8.08523 105.325 8.08523C104.931 8.08523 104.598 8.18939 104.325 8.39773C104.056 8.60606 103.85 8.90151 103.706 9.28409C103.562 9.66667 103.49 10.1174 103.49 10.6364Z" fill="#2DD4BF"/>
</svg>
